<svg width="69" height="42" viewBox="0 0 69 42" fill="none" xmlns="http://www.w3.org/2000/svg">
<path d="M52.5675 3.79997C54.5515 5.75197 55.5435 8.63197 55.5435 12.44C55.5435 16.248 54.5515 19.144 52.5675 21.128C50.6155 23.08 47.8475 24.056 44.2635 24.056H37.6875V35H31.0155V0.823975H44.2635C47.8475 0.823975 50.6155 1.81597 52.5675 3.79997ZM48.8715 12.44C48.8715 8.66397 47.2235 6.77598 43.9275 6.77598H37.6875V18.056H43.9275C45.5275 18.056 46.7435 17.624 47.5755 16.76C48.4395 15.896 48.8715 14.456 48.8715 12.44Z" fill="black"/>
<path d="M67.2522 28.568C67.7642 29.048 68.0202 30.088 68.0202 31.688C68.0202 33.288 67.7642 34.344 67.2522 34.856C66.7722 35.368 65.7322 35.624 64.1322 35.624C62.5322 35.624 61.4762 35.368 60.9642 34.856C60.4522 34.344 60.1962 33.288 60.1962 31.688C60.1962 30.088 60.4522 29.048 60.9642 28.568C61.4762 28.056 62.5322 27.8 64.1322 27.8C65.7322 27.8 66.7722 28.056 67.2522 28.568Z" fill="black"/>
<path d="M16.1124 38.2C14.1284 36.248 13.1364 33.368 13.1364 29.56C13.1364 25.752 14.1284 22.856 16.1124 20.872C18.0644 18.92 20.8324 17.944 24.4164 17.944H30.9924V6.99998H37.6644V41.176H24.4164C20.8324 41.176 18.0644 40.184 16.1124 38.2ZM19.8084 29.56C19.8084 33.336 21.4564 35.224 24.7524 35.224H30.9924V23.944H24.7524C23.1524 23.944 21.9364 24.376 21.1044 25.24C20.2404 26.104 19.8084 27.544 19.8084 29.56Z" fill="black"/>
<path d="M1.42779 13.432C0.91579 12.952 0.65979 11.912 0.65979 10.312C0.65979 8.71198 0.91579 7.65598 1.42779 7.14398C1.90779 6.63198 2.94779 6.37598 4.54779 6.37598C6.14779 6.37598 7.20379 6.63198 7.71579 7.14398C8.22779 7.65598 8.48379 8.71198 8.48379 10.312C8.48379 11.912 8.22779 12.952 7.71579 13.432C7.20379 13.944 6.14779 14.2 4.54779 14.2C2.94779 14.2 1.90779 13.944 1.42779 13.432Z" fill="black"/>
</svg>
