<svg width="111" height="14" viewBox="0 0 111 14" fill="none" xmlns="http://www.w3.org/2000/svg">
<g filter="url(#filter0_i_21:171)">
<path d="M8.08871 1.29996C8.83271 2.03196 9.20471 3.11196 9.20471 4.53996C9.20471 5.96796 8.83271 7.05396 8.08871 7.79796C7.35671 8.52996 6.31871 8.89596 4.97471 8.89596H2.50871V13H0.00671387V0.18396H4.97471C6.31871 0.18396 7.35671 0.55596 8.08871 1.29996ZM6.70271 4.53996C6.70271 3.12396 6.08471 2.41596 4.84871 2.41596H2.50871V6.64596H4.84871C5.44871 6.64596 5.90471 6.48396 6.21671 6.15996C6.54071 5.83596 6.70271 5.29596 6.70271 4.53996Z" fill="url(#paint0_radial_21:171)"/>
<path d="M16.6914 8.35596V7.41996C16.6914 6.53196 16.5594 5.85396 16.2954 5.38596C16.0434 4.91796 15.5094 4.68396 14.6934 4.68396C13.3734 4.68396 12.7134 5.57196 12.7134 7.34796V8.28396C12.7134 10.192 13.3734 11.146 14.6934 11.146C15.5454 11.146 16.1034 10.828 16.3674 10.192C16.5834 9.68796 16.6914 9.07596 16.6914 8.35596ZM19.0314 7.81596C19.0314 10.036 18.6114 11.524 17.7714 12.28C17.0634 12.928 16.0374 13.252 14.6934 13.252C12.9774 13.252 11.8194 12.748 11.2194 11.74C10.6554 10.816 10.3734 9.50796 10.3734 7.81596C10.3734 6.23196 10.6554 4.98996 11.2194 4.08996C11.8434 3.08196 12.9774 2.57796 14.6214 2.57796C16.2774 2.57796 17.4234 3.02196 18.0594 3.90996C18.7074 4.78596 19.0314 6.08796 19.0314 7.81596Z" fill="url(#paint1_radial_21:171)"/>
<path d="M28.8769 13H26.5369V6.42996C26.5369 5.84196 26.4169 5.43996 26.1769 5.22396C25.9369 5.00796 25.6009 4.89996 25.1689 4.89996L23.0629 5.78196V13H20.7229V2.72196H22.4689L23.0089 3.94596L25.8889 2.61396C26.6929 2.61396 27.3889 2.91396 27.9769 3.51396C28.5769 4.10196 28.8769 4.96596 28.8769 6.10596V13Z" fill="url(#paint2_radial_21:171)"/>
<path d="M35.6132 13H34.1552C33.2672 13 32.5892 12.736 32.1212 12.208C31.6652 11.68 31.4372 11.05 31.4372 10.318V4.91796H30.4472V3.13596H31.4372V1.11996H33.7772V3.13596H35.4332V4.91796H33.7772V10.174C33.7772 10.738 34.0472 11.02 34.5872 11.02H35.6132V13Z" fill="url(#paint3_radial_21:171)"/>
<path d="M43.1114 8.35596V7.41996C43.1114 6.53196 42.9794 5.85396 42.7154 5.38596C42.4634 4.91796 41.9294 4.68396 41.1134 4.68396C39.7934 4.68396 39.1334 5.57196 39.1334 7.34796V8.28396C39.1334 10.192 39.7934 11.146 41.1134 11.146C41.9654 11.146 42.5234 10.828 42.7874 10.192C43.0034 9.68796 43.1114 9.07596 43.1114 8.35596ZM45.4514 7.81596C45.4514 10.036 45.0314 11.524 44.1914 12.28C43.4834 12.928 42.4574 13.252 41.1134 13.252C39.3974 13.252 38.2394 12.748 37.6394 11.74C37.0754 10.816 36.7934 9.50796 36.7934 7.81596C36.7934 6.23196 37.0754 4.98996 37.6394 4.08996C38.2634 3.08196 39.3974 2.57796 41.0414 2.57796C42.6974 2.57796 43.8434 3.02196 44.4794 3.90996C45.1274 4.78596 45.4514 6.08796 45.4514 7.81596Z" fill="url(#paint4_radial_21:171)"/>
<path d="M58.5804 13H57.0144L56.2944 11.758L53.7924 13.108C52.4004 13.108 51.4644 12.604 50.9844 11.596C50.7444 11.104 50.5764 10.576 50.4804 10.012C50.3964 9.43596 50.3544 8.84196 50.3544 8.22996C50.3544 7.60596 50.3604 7.14996 50.3724 6.86196C50.3844 6.56196 50.4144 6.21996 50.4624 5.83596C50.5104 5.43996 50.5764 5.10996 50.6604 4.84596C50.7564 4.58196 50.8884 4.31196 51.0564 4.03596C51.2244 3.74796 51.4284 3.51996 51.6684 3.35196C52.2084 2.97996 52.9104 2.79396 53.7744 2.79396H56.2404L58.5804 2.64996V13ZM56.2404 9.72396V4.89996H54.4584C53.7984 4.89996 53.3364 5.15196 53.0724 5.65596C52.8204 6.15996 52.6944 6.91596 52.6944 7.92396C52.6944 8.91996 52.8144 9.62196 53.0544 10.03C53.3064 10.438 53.7744 10.642 54.4584 10.642L56.2404 9.72396Z" fill="url(#paint5_radial_21:171)"/>
<path d="M73.5672 1.29996C74.3112 2.03196 74.6832 3.11196 74.6832 4.53996C74.6832 5.96796 74.3112 7.05396 73.5672 7.79796C72.8352 8.52996 71.7972 8.89596 70.4532 8.89596H67.9872V13H65.4852V0.18396H70.4532C71.7972 0.18396 72.8352 0.55596 73.5672 1.29996ZM72.1812 4.53996C72.1812 3.12396 71.5632 2.41596 70.3272 2.41596H67.9872V6.64596H70.3272C70.9272 6.64596 71.3832 6.48396 71.6952 6.15996C72.0192 5.83596 72.1812 5.29596 72.1812 4.53996Z" fill="url(#paint6_radial_21:171)"/>
<path d="M82.17 8.35596V7.41996C82.17 6.53196 82.038 5.85396 81.774 5.38596C81.522 4.91796 80.988 4.68396 80.172 4.68396C78.852 4.68396 78.192 5.57196 78.192 7.34796V8.28396C78.192 10.192 78.852 11.146 80.172 11.146C81.024 11.146 81.582 10.828 81.846 10.192C82.062 9.68796 82.17 9.07596 82.17 8.35596ZM84.51 7.81596C84.51 10.036 84.09 11.524 83.25 12.28C82.542 12.928 81.516 13.252 80.172 13.252C78.456 13.252 77.298 12.748 76.698 11.74C76.134 10.816 75.852 9.50796 75.852 7.81596C75.852 6.23196 76.134 4.98996 76.698 4.08996C77.322 3.08196 78.456 2.57796 80.1 2.57796C81.756 2.57796 82.902 3.02196 83.538 3.90996C84.186 4.78596 84.51 6.08796 84.51 7.81596Z" fill="url(#paint7_radial_21:171)"/>
<path d="M94.3554 13H92.0154V6.42996C92.0154 5.84196 91.8954 5.43996 91.6554 5.22396C91.4154 5.00796 91.0794 4.89996 90.6474 4.89996L88.5414 5.78196V13H86.2014V2.72196H87.9474L88.4874 3.94596L91.3674 2.61396C92.1714 2.61396 92.8674 2.91396 93.4554 3.51396C94.0554 4.10196 94.3554 4.96596 94.3554 6.10596V13Z" fill="url(#paint8_radial_21:171)"/>
<path d="M101.092 13H99.6338C98.7458 13 98.0678 12.736 97.5998 12.208C97.1438 11.68 96.9158 11.05 96.9158 10.318V4.91796H95.9258V3.13596H96.9158V1.11996H99.2558V3.13596H100.912V4.91796H99.2558V10.174C99.2558 10.738 99.5258 11.02 100.066 11.02H101.092V13Z" fill="url(#paint9_radial_21:171)"/>
<path d="M108.59 8.35596V7.41996C108.59 6.53196 108.458 5.85396 108.194 5.38596C107.942 4.91796 107.408 4.68396 106.592 4.68396C105.272 4.68396 104.612 5.57196 104.612 7.34796V8.28396C104.612 10.192 105.272 11.146 106.592 11.146C107.444 11.146 108.002 10.828 108.266 10.192C108.482 9.68796 108.59 9.07596 108.59 8.35596ZM110.93 7.81596C110.93 10.036 110.51 11.524 109.67 12.28C108.962 12.928 107.936 13.252 106.592 13.252C104.876 13.252 103.718 12.748 103.118 11.74C102.554 10.816 102.272 9.50796 102.272 7.81596C102.272 6.23196 102.554 4.98996 103.118 4.08996C103.742 3.08196 104.876 2.57796 106.52 2.57796C108.176 2.57796 109.322 3.02196 109.958 3.90996C110.606 4.78596 110.93 6.08796 110.93 7.81596Z" fill="url(#paint10_radial_21:171)"/>
</g>
<defs>
<filter id="filter0_i_21:171" x="0.00671387" y="0.18396" width="111.923" height="14.068" filterUnits="userSpaceOnUse" color-interpolation-filters="sRGB">
<feFlood flood-opacity="0" result="BackgroundImageFix"/>
<feBlend mode="normal" in="SourceGraphic" in2="BackgroundImageFix" result="shape"/>
<feColorMatrix in="SourceAlpha" type="matrix" values="0 0 0 0 0 0 0 0 0 0 0 0 0 0 0 0 0 0 127 0" result="hardAlpha"/>
<feOffset dx="2" dy="4"/>
<feGaussianBlur stdDeviation="0.5"/>
<feComposite in2="hardAlpha" operator="arithmetic" k2="-1" k3="1"/>
<feColorMatrix type="matrix" values="0 0 0 0 0 0 0 0 0 0 0 0 0 0 0 0 0 0 0.56 0"/>
<feBlend mode="normal" in2="shape" result="effect1_innerShadow_21:171"/>
</filter>
<radialGradient id="paint0_radial_21:171" cx="0" cy="0" r="1" gradientUnits="userSpaceOnUse" gradientTransform="translate(55 6.5) rotate(90) scale(20.5 95)">
<stop stop-color="#C2C2C2" stop-opacity="0.25"/>
<stop offset="0.104167" stop-color="#DDDDDD" stop-opacity="0.53"/>
<stop offset="0.994792" stop-color="#6F6F6F"/>
</radialGradient>
<radialGradient id="paint1_radial_21:171" cx="0" cy="0" r="1" gradientUnits="userSpaceOnUse" gradientTransform="translate(55 6.5) rotate(90) scale(20.5 95)">
<stop stop-color="#C2C2C2" stop-opacity="0.25"/>
<stop offset="0.104167" stop-color="#DDDDDD" stop-opacity="0.53"/>
<stop offset="0.994792" stop-color="#6F6F6F"/>
</radialGradient>
<radialGradient id="paint2_radial_21:171" cx="0" cy="0" r="1" gradientUnits="userSpaceOnUse" gradientTransform="translate(55 6.5) rotate(90) scale(20.5 95)">
<stop stop-color="#C2C2C2" stop-opacity="0.25"/>
<stop offset="0.104167" stop-color="#DDDDDD" stop-opacity="0.53"/>
<stop offset="0.994792" stop-color="#6F6F6F"/>
</radialGradient>
<radialGradient id="paint3_radial_21:171" cx="0" cy="0" r="1" gradientUnits="userSpaceOnUse" gradientTransform="translate(55 6.5) rotate(90) scale(20.5 95)">
<stop stop-color="#C2C2C2" stop-opacity="0.25"/>
<stop offset="0.104167" stop-color="#DDDDDD" stop-opacity="0.53"/>
<stop offset="0.994792" stop-color="#6F6F6F"/>
</radialGradient>
<radialGradient id="paint4_radial_21:171" cx="0" cy="0" r="1" gradientUnits="userSpaceOnUse" gradientTransform="translate(55 6.5) rotate(90) scale(20.5 95)">
<stop stop-color="#C2C2C2" stop-opacity="0.25"/>
<stop offset="0.104167" stop-color="#DDDDDD" stop-opacity="0.53"/>
<stop offset="0.994792" stop-color="#6F6F6F"/>
</radialGradient>
<radialGradient id="paint5_radial_21:171" cx="0" cy="0" r="1" gradientUnits="userSpaceOnUse" gradientTransform="translate(55 6.5) rotate(90) scale(20.5 95)">
<stop stop-color="#C2C2C2" stop-opacity="0.25"/>
<stop offset="0.104167" stop-color="#DDDDDD" stop-opacity="0.53"/>
<stop offset="0.994792" stop-color="#6F6F6F"/>
</radialGradient>
<radialGradient id="paint6_radial_21:171" cx="0" cy="0" r="1" gradientUnits="userSpaceOnUse" gradientTransform="translate(55 6.5) rotate(90) scale(20.5 95)">
<stop stop-color="#C2C2C2" stop-opacity="0.25"/>
<stop offset="0.104167" stop-color="#DDDDDD" stop-opacity="0.53"/>
<stop offset="0.994792" stop-color="#6F6F6F"/>
</radialGradient>
<radialGradient id="paint7_radial_21:171" cx="0" cy="0" r="1" gradientUnits="userSpaceOnUse" gradientTransform="translate(55 6.5) rotate(90) scale(20.5 95)">
<stop stop-color="#C2C2C2" stop-opacity="0.25"/>
<stop offset="0.104167" stop-color="#DDDDDD" stop-opacity="0.53"/>
<stop offset="0.994792" stop-color="#6F6F6F"/>
</radialGradient>
<radialGradient id="paint8_radial_21:171" cx="0" cy="0" r="1" gradientUnits="userSpaceOnUse" gradientTransform="translate(55 6.5) rotate(90) scale(20.5 95)">
<stop stop-color="#C2C2C2" stop-opacity="0.25"/>
<stop offset="0.104167" stop-color="#DDDDDD" stop-opacity="0.53"/>
<stop offset="0.994792" stop-color="#6F6F6F"/>
</radialGradient>
<radialGradient id="paint9_radial_21:171" cx="0" cy="0" r="1" gradientUnits="userSpaceOnUse" gradientTransform="translate(55 6.5) rotate(90) scale(20.5 95)">
<stop stop-color="#C2C2C2" stop-opacity="0.25"/>
<stop offset="0.104167" stop-color="#DDDDDD" stop-opacity="0.53"/>
<stop offset="0.994792" stop-color="#6F6F6F"/>
</radialGradient>
<radialGradient id="paint10_radial_21:171" cx="0" cy="0" r="1" gradientUnits="userSpaceOnUse" gradientTransform="translate(55 6.5) rotate(90) scale(20.5 95)">
<stop stop-color="#C2C2C2" stop-opacity="0.25"/>
<stop offset="0.104167" stop-color="#DDDDDD" stop-opacity="0.53"/>
<stop offset="0.994792" stop-color="#6F6F6F"/>
</radialGradient>
</defs>
</svg>
